HIERARCHY
ROOT Root
{
  OFFSET 0.0 0.0 0.0
  CHANNELS 6 Xposition Yposition Zposition Zrotation Yrotation Xrotation
  JOINT Hips
  {
    OFFSET 0.0 100.0 0.0
    CHANNELS 6 Xposition Yposition Zposition Zrotation Yrotation Xrotation
    JOINT Spine1
    {
      OFFSET -0.013727 5.003763 -0.053727
      CHANNELS 3 Zrotation Yrotation Xrotation
      JOINT Spine2
      {
        OFFSET -0.0 7.125301 -0.029825
        CHANNELS 3 Zrotation Yrotation Xrotation
        JOINT Chest
        {
          OFFSET -1e-06 7.550063 -0.815971
          CHANNELS 3 Zrotation Yrotation Xrotation
          JOINT Neck1
          {
            OFFSET -0.181677 26.311295 -0.553348
            CHANNELS 3 Zrotation Yrotation Xrotation
            JOINT Neck2
            {
              OFFSET -3e-06 7.709397 2.302585
              CHANNELS 3 Zrotation Yrotation Xrotation
              JOINT Head
              {
                OFFSET -5e-06 6.128916 1.953709
                CHANNELS 3 Zrotation Yrotation Xrotation
                JOINT HeadEnd
                {
                  OFFSET 0.003598 16.065403 -1.835379
                  CHANNELS 3 Zrotation Yrotation Xrotation
                }
                JOINT Jaw
                {
                  OFFSET 0.002637 0.475592 3.094941
                  CHANNELS 3 Zrotation Yrotation Xrotation
                }
                JOINT LeftEye
                {
                  OFFSET 3.206381 5.380205 7.586883
                  CHANNELS 3 Zrotation Yrotation Xrotation
                }
                JOINT RightEye
                {
                  OFFSET -3.22244 5.361869 7.558234
                  CHANNELS 3 Zrotation Yrotation Xrotation
                }
              }
            }
          }
          JOINT LeftShoulder
          {
            OFFSET 1.621652 23.237164 5.113413
            CHANNELS 3 Zrotation Yrotation Xrotation
            JOINT LeftArm
            {
              OFFSET 14.919846 2e-06 -5.502326
              CHANNELS 3 Zrotation Yrotation Xrotation
              JOINT LeftForeArm
              {
                OFFSET 28.739307 0.0 -0.002588
                CHANNELS 3 Zrotation Yrotation Xrotation
                JOINT LeftHand
                {
                  OFFSET 27.093981 -1e-06 0.002609
                  CHANNELS 3 Zrotation Yrotation Xrotation
                  JOINT LeftHandThumb1
                  {
                    OFFSET 2.276482 -1.392045 3.191413
                    CHANNELS 3 Zrotation Yrotation Xrotation
                    JOINT LeftHandThumb2
                    {
                      OFFSET 4.012836 -1.828127 1.641654
                      CHANNELS 3 Zrotation Yrotation Xrotation
                      JOINT LeftHandThumb3
                      {
                        OFFSET 2.798515 0.0 -3e-06
                        CHANNELS 3 Zrotation Yrotation Xrotation
                        JOINT LeftHandThumbEnd
                        {
                          OFFSET 3.180793 -4e-06 4e-06
                          CHANNELS 3 Zrotation Yrotation Xrotation
                        }
                      }
                    }
                  }
                  JOINT LeftHandIndex1
                  {
                    OFFSET 3.247555 -0.531998 2.296169
                    CHANNELS 3 Zrotation Yrotation Xrotation
                    JOINT LeftHandIndex2
                    {
                      OFFSET 6.364578 0.01206 0.1786
                      CHANNELS 3 Zrotation Yrotation Xrotation
                      JOINT LeftHandIndex3
                      {
                        OFFSET 3.662364 0.0 0.0
                        CHANNELS 3 Zrotation Yrotation Xrotation
                        JOINT LeftHandIndex4
                        {
                          OFFSET 2.329242 4e-06 4e-06
                          CHANNELS 3 Zrotation Yrotation Xrotation
                          JOINT LeftHandIndexEnd
                          {
                            OFFSET 2.759615 -0.180537 -0.113024
                            CHANNELS 3 Zrotation Yrotation Xrotation
                          }
                        }
                      }
                    }
                  }
                  JOINT LeftHandMiddle1
                  {
                    OFFSET 3.163495 0.240981 1.000332
                    CHANNELS 3 Zrotation Yrotation Xrotation
                    JOINT LeftHandMiddle2
                    {
                      OFFSET 6.19078 -0.259278 -1.002548
                      CHANNELS 3 Zrotation Yrotation Xrotation
                      JOINT LeftHandMiddle3
                      {
                        OFFSET 4.35652 -4e-06 -1e-06
                        CHANNELS 3 Zrotation Yrotation Xrotation
                        JOINT LeftHandMiddle4
                        {
                          OFFSET 2.996877 -8e-06 0.0
                          CHANNELS 3 Zrotation Yrotation Xrotation
                          JOINT LeftHandMiddleEnd
                          {
                            OFFSET 2.304287 -0.294569 -0.031741
                            CHANNELS 3 Zrotation Yrotation Xrotation
                          }
                        }
                      }
                    }
                  }
                  JOINT LeftHandRing1
                  {
                    OFFSET 2.882643 -0.053652 -0.322543
                    CHANNELS 3 Zrotation Yrotation Xrotation
                    JOINT LeftHandRing2
                    {
                      OFFSET 5.854541 -0.486202 -1.373841
                      CHANNELS 3 Zrotation Yrotation Xrotation
                      JOINT LeftHandRing3
                      {
                        OFFSET 4.350578 0.0 3e-06
                        CHANNELS 3 Zrotation Yrotation Xrotation
                        JOINT LeftHandRing4
                        {
                          OFFSET 2.651321 7e-06 2e-06
                          CHANNELS 3 Zrotation Yrotation Xrotation
                          JOINT LeftHandRingEnd
                          {
                            OFFSET 1.936105 0.077687 -7.1e-05
                            CHANNELS 3 Zrotation Yrotation Xrotation
                          }
                        }
                      }
                    }
                  }
                  JOINT LeftHandPinky1
                  {
                    OFFSET 2.8655 -0.310005 -1.600378
                    CHANNELS 3 Zrotation Yrotation Xrotation
                    JOINT LeftHandPinky2
                    {
                      OFFSET 5.087849 -1.331141 -1.77123
                      CHANNELS 3 Zrotation Yrotation Xrotation
                      JOINT LeftHandPinky3
                      {
                        OFFSET 3.070974 4e-06 0.0
                        CHANNELS 3 Zrotation Yrotation Xrotation
                        JOINT LeftHandPinky4
                        {
                          OFFSET 1.549672 0.0 1e-06
                          CHANNELS 3 Zrotation Yrotation Xrotation
                          JOINT LeftHandPinkyEnd
                          {
                            OFFSET 1.944893 -0.157802 0.057219
                            CHANNELS 3 Zrotation Yrotation Xrotation
                          }
                        }
                      }
                    }
                  }
                }
              }
            }
          }
          JOINT RightShoulder
          {
            OFFSET -1.380118 23.180309 5.214158
            CHANNELS 3 Zrotation Yrotation Xrotation
            JOINT RightArm
            {
              OFFSET -15.037196 1.2e-05 -5.545604
              CHANNELS 3 Zrotation Yrotation Xrotation
              JOINT RightForeArm
              {
                OFFSET -28.736639 2e-06 -0.002597
                CHANNELS 3 Zrotation Yrotation Xrotation
                JOINT RightHand
                {
                  OFFSET -27.133619 -0.0 0.002613
                  CHANNELS 3 Zrotation Yrotation Xrotation
                  JOINT RightHandThumb1
                  {
                    OFFSET -2.274032 -1.383988 3.163127
                    CHANNELS 3 Zrotation Yrotation Xrotation
                    JOINT RightHandThumb2
                    {
                      OFFSET -4.011429 -1.827466 1.640914
                      CHANNELS 3 Zrotation Yrotation Xrotation
                      JOINT RightHandThumb3
                      {
                        OFFSET -2.794935 -4e-06 -3e-06
                        CHANNELS 3 Zrotation Yrotation Xrotation
                        JOINT RightHandThumbEnd
                        {
                          OFFSET -3.183852 4e-06 1e-06
                          CHANNELS 3 Zrotation Yrotation Xrotation
                        }
                      }
                    }
                  }
                  JOINT RightHandIndex1
                  {
                    OFFSET -3.253266 -0.520057 2.282866
                    CHANNELS 3 Zrotation Yrotation Xrotation
                    JOINT RightHandIndex2
                    {
                      OFFSET -6.341917 0.012471 0.178266
                      CHANNELS 3 Zrotation Yrotation Xrotation
                      JOINT RightHandIndex3
                      {
                        OFFSET -3.654871 -8e-06 -0.0
                        CHANNELS 3 Zrotation Yrotation Xrotation
                        JOINT RightHandIndex4
                        {
                          OFFSET -2.327586 0.0 1e-06
                          CHANNELS 3 Zrotation Yrotation Xrotation
                          JOINT RightHandIndexEnd
                          {
                            OFFSET -2.76179 -0.180656 -0.113078
                            CHANNELS 3 Zrotation Yrotation Xrotation
                          }
                        }
                      }
                    }
                  }
                  JOINT RightHandMiddle1
                  {
                    OFFSET -3.168106 0.246593 1.00103
                    CHANNELS 3 Zrotation Yrotation Xrotation
                    JOINT RightHandMiddle2
                    {
                      OFFSET -6.180828 -0.258836 -1.000895
                      CHANNELS 3 Zrotation Yrotation Xrotation
                      JOINT RightHandMiddle3
                      {
                        OFFSET -4.348901 0.0 -0.0
                        CHANNELS 3 Zrotation Yrotation Xrotation
                        JOINT RightHandMiddle4
                        {
                          OFFSET -3.00024 -4e-06 -2e-06
                          CHANNELS 3 Zrotation Yrotation Xrotation
                          JOINT RightHandMiddleEnd
                          {
                            OFFSET -2.30252 -0.29437 -0.031706
                            CHANNELS 3 Zrotation Yrotation Xrotation
                          }
                        }
                      }
                    }
                  }
                  JOINT RightHandRing1
                  {
                    OFFSET -2.88569 -0.067952 -0.308858
                    CHANNELS 3 Zrotation Yrotation Xrotation
                    JOINT RightHandRing2
                    {
                      OFFSET -5.854198 -0.48613 -1.373731
                      CHANNELS 3 Zrotation Yrotation Xrotation
                      JOINT RightHandRing3
                      {
                        OFFSET -4.33881 -4e-06 -0.0
                        CHANNELS 3 Zrotation Yrotation Xrotation
                        JOINT RightHandRing4
                        {
                          OFFSET -2.654903 -4e-06 4e-06
                          CHANNELS 3 Zrotation Yrotation Xrotation
                          JOINT RightHandRingEnd
                          {
                            OFFSET -1.933568 0.077527 -5.2e-05
                            CHANNELS 3 Zrotation Yrotation Xrotation
                          }
                        }
                      }
                    }
                  }
                  JOINT RightHandPinky1
                  {
                    OFFSET -2.866425 -0.342796 -1.584145
                    CHANNELS 3 Zrotation Yrotation Xrotation
                    JOINT RightHandPinky2
                    {
                      OFFSET -5.091371 -1.332055 -1.772385
                      CHANNELS 3 Zrotation Yrotation Xrotation
                      JOINT RightHandPinky3
                      {
                        OFFSET -3.062664 -4e-06 1e-06
                        CHANNELS 3 Zrotation Yrotation Xrotation
                        JOINT RightHandPinky4
                        {
                          OFFSET -1.546529 4e-06 -2e-06
                          CHANNELS 3 Zrotation Yrotation Xrotation
                          JOINT RightHandPinkyEnd
                          {
                            OFFSET -1.945119 -0.157718 0.057211
                            CHANNELS 3 Zrotation Yrotation Xrotation
                          }
                        }
                      }
                    }
                  }
                }
              }
            }
          }
        }
      }
    }
    JOINT LeftLeg
    {
      OFFSET 10.043214 -8.434526 2.595655
      CHANNELS 3 Zrotation Yrotation Xrotation
      JOINT LeftShin
      {
        OFFSET -1e-06 -43.221752 -0.802913
        CHANNELS 3 Zrotation Yrotation Xrotation
        JOINT LeftFoot
        {
          OFFSET 1e-06 -42.155094 -3.481523
          CHANNELS 3 Zrotation Yrotation Xrotation
          JOINT LeftToeBase
          {
            OFFSET 0.0 -5.059472 13.231529
            CHANNELS 3 Zrotation Yrotation Xrotation
            JOINT LeftToeEnd
            {
              OFFSET -0.009607 -1.647619 6.513017
              CHANNELS 3 Zrotation Yrotation Xrotation
            }
          }
        }
      }
    }
    JOINT RightLeg
    {
      OFFSET -10.047278 -8.29526 2.620317
      CHANNELS 3 Zrotation Yrotation Xrotation
      JOINT RightShin
      {
        OFFSET 1e-06 -43.362206 -0.805556
        CHANNELS 3 Zrotation Yrotation Xrotation
        JOINT RightFoot
        {
          OFFSET 2e-06 -42.117393 -3.478398
          CHANNELS 3 Zrotation Yrotation Xrotation
          JOINT RightToeBase
          {
            OFFSET -0.0 -5.079609 13.284196
            CHANNELS 3 Zrotation Yrotation Xrotation
            JOINT RightToeEnd
            {
              OFFSET 0.009532 -1.634378 6.460591
              CHANNELS 3 Zrotation Yrotation Xrotation
            }
          }
        }
      }
    }
  }
}
MOTION
Frames: 5
Frame Time: 0.03333333333333333
0.0 0.0 0.0 0.0 -0.0 0.0 -4.211148 96.197144 112.465561 -4.889231 0.439341 -2.480793 0.726989 -0.205923 0.496471 0.074468 -2.414308 -4.414418 2.788808 -3.437919 10.958733 0.122915 2.622929 -2.638532 -0.760533 0.897013 -3.443715 -0.469048 -0.273944 -13.919001 7.7e-05 -2.3e-05 6e-06 0.000472 -0.087783 0.033029 0.66627 -3.836709 -10.490465 -0.662553 3.666289 -10.464993 -16.294626 -8.605392 8.92772 -63.481136 -10.067427 8.591246 0.145145 -20.847343 -0.004878 5.03219 2.986524 -14.812029 -5.882106 9.861288 0.702592 -10.936872 -0.360575 7.156207 0.0 8.774828 0.0 -16.168344 17.833672 5.802093 -1.844033 2.498506 -2.507277 -10.1636 4.678947 4.621108 -20.976023 -3e-06 2e-06 -21.226288 2.451698 -3.594 1e-06 -6e-06 1e-06 -1.362682 2.240798 -0.746324 -21.334915 0.584909 3.008324 -13.821216 -3e-06 2e-06 -23.887171 -0.249079 -0.839484 -60.06036 2.163225 -0.850033 -0.294024 1.679688 0.833256 -14.21821 0.093214 1.30058 -34.212048 -0.287564 0.967171 -20.033215 0.964537 1.212844 -0.0 -0.0 -1e-06 -3.440389 0.788234 0.501655 -15.928189 -3.167313 2.999708 -6.338826 -1e-06 1e-06 -18.123447 3.648184 -4.905672 -3e-06 0.0 -2e-06 15.603578 8.098737 8.314322 66.954704 -1.014132 6.337906 -0.593264 13.785422 -0.002917 -3.666445 -2.21832 -15.675431 2.243541 -5.255036 -3.180157 14.282887 -0.826594 6.952503 -2e-06 -12.690604 1e-06 16.143564 -17.793324 2.525043 1.665666 -1.955921 -2.878298 4.727798 -4.170587 4.993924 11.020524 3e-06 -1e-06 12.10905 -3.735716 -2.866783 0.0 -0.0 -0.0 1.291985 -1.928549 -1.498089 14.800125 0.567468 3.865608 14.242567 -1.341736 -6.660656 19.631962 0.143926 -0.648244 50.041836 -0.302339 -6.319109 0.353029 -1.51115 -0.03194 20.222786 3.68431 2.31663 18.78727 5e-06 0.0 10.751624 -0.479869 1.397906 0.0 -0.0 -0.0 3.273806 0.305947 -0.580111 21.486809 11.830377 2.266134 8.162925 1e-06 0.0 18.399076 -3.798985 -4.940573 2e-06 -0.0 -1e-06 7.086113 4.845527 12.09761 -0.054166 -0.602734 34.079231 4.010455 -5.825708 2.870899 2.312791 -1.623582 -26.938564 -0.0 -0.0 2e-06 6.726636 0.446086 -22.650242 0.067985 -0.105264 17.271233 -3.033789 -3.034564 8.072927 -1.405862 1.052342 -1.873219 0.0 0.0 -1e-06 
0.0 0.0 0.0 0.0 -0.0 0.0 -4.858203 96.621666 116.287674 -6.502929 0.762606 -2.803531 1.6653 -0.246694 0.784942 0.291902 -2.384927 -4.288641 3.479941 -3.629841 10.650208 0.261708 2.523868 -2.844511 -0.730221 0.727674 -3.45868 -0.495001 -0.10522 -13.838435 7.7e-05 -2.2e-05 6e-06 0.015706 -0.044782 0.022218 0.685064 -3.790615 -10.47965 -0.652252 3.702726 -10.452114 -15.515188 -8.708427 9.082594 -65.055313 -8.843121 8.451836 0.308774 -18.159901 -0.07023 4.413217 3.717173 -15.125099 -5.882107 9.861285 0.702591 -10.936873 -0.360575 7.156205 1e-06 8.774826 -0.0 -16.240807 17.762817 5.724391 -1.844033 2.498504 -2.507278 -10.1636 4.678944 4.621109 -20.976023 -4e-06 2e-06 -21.226286 2.451696 -3.593999 1e-06 -6e-06 -0.0 -1.362681 2.240798 -0.746324 -21.334917 0.584909 3.008322 -13.821215 -3e-06 1e-06 -23.887171 -0.249079 -0.839482 -59.927467 2.096403 -0.842989 -0.294025 1.679687 0.833256 -14.218211 0.093215 1.300579 -34.212055 -0.287565 0.96717 -20.033215 0.964536 1.212844 -0.0 -1e-06 0.0 -3.440388 0.788234 0.501656 -15.928185 -3.167309 2.999707 -6.338826 -2e-06 1e-06 -18.123444 3.648183 -4.905671 -2e-06 0.0 -1e-06 15.361253 8.383328 8.343071 66.557114 -0.398866 7.266722 -0.41858 14.765882 0.060521 -3.633105 -2.090314 -16.123325 2.243543 -5.255038 -3.180159 14.282898 -0.826596 6.952506 -2e-06 -12.690608 1e-06 16.12113 -17.77404 2.655405 1.665667 -1.955922 -2.878299 4.727801 -4.170588 4.993925 11.020532 2e-06 -1e-06 12.109058 -3.735717 -2.866785 -0.0 0.0 0.0 1.291986 -1.92855 -1.49809 14.800136 0.567467 3.865609 14.242579 -1.341737 -6.66066 19.631975 0.143925 -0.648246 50.146317 -0.234962 -6.168369 0.353029 -1.511151 -0.03194 20.222803 3.684309 2.316631 18.787287 4e-06 -1e-06 10.751634 -0.479869 1.397906 -1e-06 0.0 0.0 3.273809 0.305947 -0.580111 21.486824 11.830378 2.266133 8.16293 1e-06 -1e-06 18.399092 -3.798986 -4.940577 3e-06 -0.0 -1e-06 9.746805 5.342626 6.691948 -0.176748 -0.56391 45.523773 2.803055 -5.457191 11.446832 2.135559 -1.51491 -22.565918 -0.0 0.0 2e-06 8.930513 -0.018812 -19.793882 0.050082 -0.180028 17.498562 -3.418788 -3.387506 5.028988 -1.419854 1.011408 -1.364912 0.0 0.0 -1e-06 
0.0 0.0 0.0 0.0 -0.0 0.0 -5.412213 97.045555 119.803215 -7.640058 1.331523 -3.364373 2.295321 -0.231084 1.164239 0.404915 -2.277295 -4.116206 3.993318 -3.72469 10.671302 0.565857 2.241356 -3.098548 -0.650603 0.649795 -3.523768 -0.521502 -0.070057 -13.809196 7.7e-05 -2.3e-05 6e-06 0.013335 -0.033934 0.005238 0.682256 -3.778101 -10.472242 -0.655409 3.709632 -10.435205 -15.303809 -8.816535 9.27788 -65.611504 -8.172569 8.734282 0.231131 -15.482003 -0.037426 3.788534 4.631511 -15.103434 -5.882106 9.861288 0.70259 -10.936872 -0.360575 7.156206 0.0 8.774828 -0.0 -16.365456 17.8234 5.787213 -1.844032 2.498504 -2.507278 -10.163601 4.678946 4.621109 -20.976028 -4e-06 1e-06 -21.226292 2.451696 -3.594 1e-06 -7e-06 -0.0 -1.362681 2.240798 -0.746323 -21.334913 0.584909 3.008323 -13.821213 -3e-06 1e-06 -23.887167 -0.249079 -0.839483 -60.044506 2.15948 -0.84132 -0.294025 1.679687 0.833257 -14.21821 0.093214 1.30058 -34.212051 -0.287565 0.967171 -20.033215 0.964536 1.212844 -0.0 -0.0 -0.0 -3.440389 0.788233 0.501655 -15.928189 -3.167311 2.999707 -6.338827 -1e-06 1e-06 -18.123453 3.648183 -4.905672 -3e-06 -0.0 -2e-06 15.705725 8.580505 8.270107 65.443275 0.478007 7.896659 -0.186116 15.973975 0.079975 -3.9556 -1.81137 -16.100328 2.243541 -5.255035 -3.180157 14.282892 -0.826595 6.9525 -3e-06 -12.6906 0.0 16.166502 -17.717979 2.716713 1.665666 -1.95592 -2.878298 4.727799 -4.170586 4.993922 11.020526 3e-06 -1e-06 12.109053 -3.735714 -2.866783 -0.0 0.0 0.0 1.291985 -1.928548 -1.498089 14.800129 0.567468 3.865606 14.242571 -1.341736 -6.660656 19.631969 0.143925 -0.648245 50.331188 -0.174772 -5.923589 0.353029 -1.51115 -0.03194 20.222794 3.684308 2.316629 18.787271 5e-06 -1e-06 10.751631 -0.479868 1.397905 -1e-06 -0.0 0.0 3.273807 0.305947 -0.580111 21.486813 11.830369 2.266131 8.162927 1e-06 -1e-06 18.39908 -3.798983 -4.940575 3e-06 1e-06 -1e-06 11.027293 4.417295 1.01812 -0.138241 -0.459903 55.556564 0.877049 -3.215793 16.585871 1.840571 -1.731005 -10.377275 0.0 -0.0 3e-06 10.566851 -0.913156 -16.573042 -0.032573 -0.179607 16.991739 -3.646974 -3.574974 2.719379 -1.428564 0.981157 -1.234034 -0.0 0.0 -1e-06 
0.0 0.0 0.0 0.0 -0.0 0.0 -5.771406 97.59127 123.121071 -8.005618 1.727713 -4.049968 2.573959 -0.147857 1.520181 0.418182 -2.084317 -3.90318 4.116715 -3.631187 10.922153 0.882527 2.008537 -3.163088 -0.655017 0.502986 -3.559273 -0.454252 -0.270521 -13.943854 7.7e-05 -2.2e-05 6e-06 -0.005439 -0.070253 0.000762 0.66189 -3.81677 -10.493999 -0.67305 3.675811 -10.452409 -15.216465 -8.760573 9.469815 -65.859612 -7.703463 8.846767 0.070918 -13.405328 0.014691 3.585529 5.435294 -14.756927 -5.882108 9.861285 0.702591 -10.936875 -0.360575 7.156209 1e-06 8.774826 1e-06 -16.542004 17.908028 5.804326 -1.844033 2.498504 -2.507279 -10.163602 4.678945 4.621112 -20.97603 -5e-06 2e-06 -21.226292 2.451694 -3.594 -1e-06 -6e-06 -0.0 -1.362682 2.240798 -0.746324 -21.334921 0.584909 3.008324 -13.821218 -3e-06 1e-06 -23.88718 -0.249079 -0.839482 -60.196957 2.268196 -0.907431 -0.294025 1.679687 0.833257 -14.218215 0.093215 1.300581 -34.212067 -0.287564 0.967171 -20.033226 0.964537 1.212845 -1e-06 -0.0 -0.0 -3.440389 0.788233 0.501656 -15.928192 -3.16731 2.999708 -6.338829 -1e-06 1e-06 -18.123453 3.648182 -4.905671 -3e-06 -0.0 -2e-06 16.247547 8.819614 8.347339 64.223091 1.972743 7.813554 0.063603 16.770193 0.081819 -5.050373 -1.48817 -15.54214 2.243541 -5.255036 -3.180157 14.282892 -0.826595 6.952502 -3e-06 -12.690603 1e-06 16.328423 -17.761724 2.679159 1.665666 -1.955921 -2.878299 4.727799 -4.170586 4.993924 11.020526 3e-06 -1e-06 12.109053 -3.735715 -2.866783 1e-06 0.0 -0.0 1.291986 -1.928549 -1.498089 14.800129 0.567468 3.865607 14.242573 -1.341735 -6.660656 19.631968 0.143926 -0.648244 50.404457 -0.176313 -5.831765 0.353029 -1.511151 -0.03194 20.222788 3.68431 2.31663 18.787273 4e-06 -1e-06 10.751627 -0.479868 1.397907 -2e-06 -1e-06 0.0 3.273807 0.305947 -0.580111 21.486814 11.830374 2.266132 8.162928 1e-06 -1e-06 18.39908 -3.798984 -4.940574 3e-06 1e-06 -1e-06 10.794497 2.863485 -4.188221 -0.114534 -0.266838 62.607018 0.612322 -1.319413 15.29118 1.803495 -1.825612 -6.784629 0.0 0.0 2e-06 11.202771 -1.643996 -12.713482 -0.093745 -0.185239 15.205528 -3.699127 -3.662361 1.204707 -1.422792 0.979766 -1.167267 -0.0 0.0 -1e-06 
0.0 0.0 0.0 0.0 -0.0 0.0 -5.977551 98.177818 126.377617 -7.69763 1.630136 -4.838019 2.666005 -0.020987 1.983468 0.3382 -1.732776 -3.656642 3.856092 -3.367213 11.126633 1.089958 1.96885 -2.884062 -0.698552 0.345645 -3.5423 -0.394101 -0.598824 -14.077141 7.7e-05 -2.2e-05 6e-06 -0.015398 -0.087819 0.015272 0.640604 -3.838855 -10.504583 -0.672006 3.663272 -10.466962 -14.678917 -8.417632 9.548819 -66.52652 -6.946215 8.660172 -0.086433 -12.63112 0.036796 3.483125 5.680251 -14.157732 -5.882107 9.861289 0.702591 -10.936875 -0.360576 7.156208 1e-06 8.77483 -1e-06 -16.576128 17.932917 5.838988 -1.844032 2.498505 -2.507277 -10.163603 4.678946 4.621109 -20.976027 -4e-06 5e-06 -21.226292 2.451697 -3.593999 -1e-06 -6e-06 -0.0 -1.362681 2.240799 -0.746323 -21.334919 0.584908 3.008325 -13.821217 -3e-06 3e-06 -23.887178 -0.249079 -0.83948 -60.266682 2.349702 -0.974574 -0.294025 1.679688 0.833256 -14.218213 0.093214 1.300581 -34.212063 -0.287565 0.967174 -20.033218 0.964536 1.212846 -1e-06 -1e-06 -0.0 -3.440389 0.788233 0.501656 -15.928189 -3.167312 2.999709 -6.338829 -2e-06 2e-06 -18.123453 3.648184 -4.90567 -3e-06 0.0 -2e-06 16.229067 9.283039 8.603614 63.781425 3.999941 7.442196 0.243397 17.105703 0.087943 -6.413689 -1.265036 -15.296536 2.243541 -5.255037 -3.180158 14.282894 -0.826593 6.952505 -3e-06 -12.690607 -0.0 16.412575 -17.830036 2.628582 1.665666 -1.955922 -2.878299 4.727799 -4.170588 4.993925 11.020528 3e-06 -1e-06 12.109055 -3.735717 -2.866785 -0.0 -0.0 -0.0 1.291986 -1.92855 -1.498089 14.800131 0.567469 3.865608 14.242573 -1.341735 -6.660658 19.631969 0.143927 -0.648244 50.287144 -0.165111 -5.88907 0.353029 -1.511151 -0.03194 20.222797 3.684312 2.316631 18.787275 5e-06 -0.0 10.751631 -0.479867 1.397907 -1e-06 -0.0 0.0 3.273808 0.305947 -0.580111 21.486818 11.83038 2.266134 8.16293 2e-06 -0.0 18.399088 -3.798986 -4.940576 2e-06 1e-06 -1e-06 9.578868 1.651142 -8.928318 -0.081393 -0.002272 66.473228 1.327046 0.209304 11.864503 1.842748 -1.853171 -6.201791 0.0 -0.0 2e-06 11.00529 -1.903835 -8.333133 -0.08268 -0.151981 12.598818 -3.593266 -3.605967 0.209905 -1.416786 0.990644 -1.086133 0.0 0.0 -1e-06 
